<?xml version="1.0" encoding="UTF-8" standalone="no"?>
<!-- Created with Inkscape (http://www.inkscape.org/) -->

<svg
   xmlns:dc="http://purl.org/dc/elements/1.1/"
   xmlns:cc="http://creativecommons.org/ns#"
   xmlns:rdf="http://www.w3.org/1999/02/22-rdf-syntax-ns#"
   xmlns:svg="http://www.w3.org/2000/svg"
   xmlns="http://www.w3.org/2000/svg"
   xmlns:sodipodi="http://sodipodi.sourceforge.net/DTD/sodipodi-0.dtd"
   xmlns:inkscape="http://www.inkscape.org/namespaces/inkscape"
   id="svg2"
   width="36"
   version="1.0"
   height="16"
   sodipodi:docname="checkmarks.svg"
   inkscape:version="0.92.2 (5c3e80d, 2017-08-06)">
  <defs
     id="defs24" />
  <sodipodi:namedview
     pagecolor="#ffffff"
     bordercolor="#666666"
     borderopacity="1"
     objecttolerance="10"
     gridtolerance="10"
     guidetolerance="10"
     inkscape:pageopacity="0"
     inkscape:pageshadow="2"
     inkscape:window-width="1098"
     inkscape:window-height="710"
     id="namedview22"
     showgrid="false"
     inkscape:zoom="12.511862"
     inkscape:cx="18.550727"
     inkscape:cy="7.6763001"
     inkscape:window-x="181"
     inkscape:window-y="177"
     inkscape:window-maximized="0"
     inkscape:current-layer="svg2"
     inkscape:pagecheckerboard="true"
     inkscape:showpageshadow="false" />
  <metadata
     id="metadata7">
    <rdf:RDF>
      <cc:Work
         rdf:about="">
        <dc:format>image/svg+xml</dc:format>
        <dc:type
           rdf:resource="http://purl.org/dc/dcmitype/StillImage" />
        <dc:title></dc:title>
      </cc:Work>
    </rdf:RDF>
  </metadata>
  <g
     id="radiobutton">
    <path
       style="fill:#ececec;fill-opacity:1"
       inkscape:connector-curvature="0"
       d="M 7.9981,11 A 3,3 0 0 1 5,7.999 3,3 0 0 1 8.0009,5 3,3 0 0 1 11,8 3,3 0 0 1 8,11 V 8 Z"
       id="path4178" />
    <rect
       style="fill:#008080;fill-opacity:0"
       x="0"
       ry="1"
       width="16"
       height="16"
       y="0"
       id="rect4180" />
  </g>
  <g
     id="checkbox"
     transform="translate(0.47954498,-0.63939331)">
    <rect
       style="fill:#008080;fill-opacity:0"
       x="20"
       width="16"
       height="16"
       y="0"
       id="rect4165" />
    <polygon
       style="fill:#ececec;fill-opacity:1"
       transform="matrix(0.19663,0,0,0.19663,18.1096,-1.704)"
       points="28.4,50.8 23.6,57.2 42.5,71.4 77,32.7 71,27.3 41.5,60.6 "
       id="polygon8" />
  </g>
</svg>
